<?xml version="1.0" encoding="utf-8"?>
<!-- Generator: Adobe Illustrator 23.0.1, SVG Export Plug-In . SVG Version: 6.00 Build 0)  -->
<svg version="1.1" xmlns="http://www.w3.org/2000/svg" xmlns:xlink="http://www.w3.org/1999/xlink" x="0px" y="0px"
	 viewBox="0 0 1920 1080" style="enable-background:new 0 0 1920 1080;" xml:space="preserve">
<style type="text/css">
	.st0{fill:#000104;}
	.st1{fill:#19AA15;}
	.st2{fill:#E1F200;}
	.st3{fill:#FF4200;}
	.st4{fill:none;stroke:#000000;stroke-width:5;stroke-miterlimit:10;}
	.st5{fill:#0025A5;}
	.st6{fill:#E1F206;}
	.st7{fill:#FF5E00;}
	.st8{fill:#CC0584;}
</style>
<g id="Layer_2">
</g>
<g id="Layer_1">
	<g>
		<rect x="637.7" y="4.3" transform="matrix(0.866 -0.5 0.5 0.866 14.0632 351.6155)" class="st0" width="51" height="290.6"/>
	</g>
	<g>

			<rect x="966.9" y="353.2" transform="matrix(0.8516 -0.5242 0.5242 0.8516 -18.1392 733.1411)" class="st1" width="637.6" height="90.8"/>
	</g>
	<g>

			<rect x="1254.5" y="524.9" transform="matrix(0.8516 -0.5242 0.5242 0.8516 -193.1417 782.845)" class="st2" width="63" height="415.3"/>
	</g>
	<g>

			<rect x="1547.5" y="261.3" transform="matrix(0.8516 -0.5242 0.5242 0.8516 109.4695 943.6913)" class="st3" width="347.6" height="34.4"/>
	</g>
	<line class="st4" x1="1691" y1="244" x2="1381" y2="436"/>
	<line class="st4" x1="1539.5" y1="1025.5" x2="1261.9" y2="574.2"/>
	<line class="st4" x1="1197.6" y1="979" x2="1015.4" y2="658"/>
	<g>
		<rect x="235" y="791.6" transform="matrix(0.866 -0.5 0.5 0.866 -337.5769 379.0635)" class="st5" width="607" height="55.7"/>
	</g>
	<g>
		<rect x="452.9" y="683.7" transform="matrix(0.866 -0.5 0.5 0.866 -267.805 386.1716)" class="st6" width="267.6" height="18.3"/>
	</g>
	<line class="st4" x1="858.7" y1="494.5" x2="542.8" y2="677"/>
	<line class="st4" x1="539.1" y1="539.8" x2="218.4" y2="713.7"/>
	<g>

			<rect x="28.4" y="549.4" transform="matrix(0.8791 -0.4766 0.4766 0.8791 -256.5281 197.5594)" class="st7" width="465.5" height="110.1"/>
	</g>
	<g>

			<rect x="869.8" y="210.4" transform="matrix(0.8516 -0.5242 0.5242 0.8516 34.1554 576.0006)" class="st5" width="329" height="34.5"/>
	</g>
	<line class="st4" x1="676.5" y1="421.5" x2="533.5" y2="171.5"/>
	<line class="st4" x1="1280.1" y1="205.4" x2="1024.5" y2="352.5"/>
	<line class="st4" x1="1767" y1="330" x2="1546.5" y2="466.5"/>
	<g>

			<rect x="609.3" y="292.5" transform="matrix(0.866 -0.5 0.5 0.866 -119.9659 365.4588)" class="st6" width="25.4" height="228.1"/>
	</g>
	<g>

			<rect x="1427.9" y="551.4" transform="matrix(0.8516 -0.5242 0.5242 0.8516 -67.91 897.8516)" class="st0" width="247.5" height="34.9"/>
	</g>
	<g>

			<rect x="1195.5" y="819.6" transform="matrix(0.866 -0.5 0.5 0.866 -302.0817 728.9748)" class="st3" width="27.6" height="217.2"/>
	</g>
	<g>
		<rect x="1229.7" y="84.8" transform="matrix(0.866 -0.5 0.5 0.866 126.0943 683.4282)" class="st3" width="217.2" height="43.2"/>
	</g>
	<line class="st4" x1="1019.5" y1="1005.5" x2="960.5" y2="901.5"/>
	<g>
		<rect x="393.1" y="58.7" transform="matrix(0.866 -0.5 0.5 0.866 -59.4133 243.2691)" class="st8" width="62.3" height="347.6"/>
	</g>
	<g>

			<rect x="1007.7" y="774.2" transform="matrix(0.8501 -0.5265 0.5265 0.8501 -324.5424 675.717)" class="st1" width="34.3" height="267.6"/>
	</g>
</g>
</svg>
