<svg id="Layer_1" data-name="Layer 1" xmlns="http://www.w3.org/2000/svg" width="281.48" height="83.79" viewBox="0 0 281.48 83.79"><defs><style>.cls-1{fill:#fff;stroke:#fff;stroke-miterlimit:10;stroke-width:2px;}</style></defs><title>Artboard 1</title><path class="cls-1" d="M14.68,11.51h32L45.78,18H20.66L18.42,34h23.4L41,40.46H17.56l-3.1,22H7.55Z"/><path class="cls-1" d="M56,11.51H73.94a19.72,19.72,0,0,1,7.88,1.33,11.26,11.26,0,0,1,4.53,3.39,9.71,9.71,0,0,1,1.91,4.61,17,17,0,0,1,0,4.93,15.31,15.31,0,0,1-4.55,8.82,17.93,17.93,0,0,1-4.37,3.09,14.94,14.94,0,0,1-5.4,1.55L85.1,62.49H76.46L66.59,40h-7.7l-3.1,22.47H48.88ZM59.75,34h9.07a24.8,24.8,0,0,0,4-.33,12.14,12.14,0,0,0,3.71-1.19A7.78,7.78,0,0,0,79.41,30a9.49,9.49,0,0,0,1.51-4.21,7.77,7.77,0,0,0-.36-4.21,5.47,5.47,0,0,0-2.12-2.49,9.49,9.49,0,0,0-3.35-1.19,24.79,24.79,0,0,0-4-.32H62.06Z"/><path class="cls-1" d="M90.35,61.91l7.06-6.69A22,22,0,0,1,93.55,47a26.2,26.2,0,0,1-.32-10,30.78,30.78,0,0,1,3.46-10.58,31.16,31.16,0,0,1,6.69-8.5,30.68,30.68,0,0,1,9.22-5.65,29.59,29.59,0,0,1,11-2,25.57,25.57,0,0,1,8.79,1.44,22.23,22.23,0,0,1,7,4l6.91-6.48,2.6,2.73-6.84,6.48A22.2,22.2,0,0,1,146,26.7a26.86,26.86,0,0,1,.4,10.3,31.3,31.3,0,0,1-10.08,19.08,30.68,30.68,0,0,1-9.22,5.65,29.64,29.64,0,0,1-11,2.05,26.14,26.14,0,0,1-9-1.47,21.48,21.48,0,0,1-7-4.21l-7,6.55ZM134,20.73a15.48,15.48,0,0,0-4.93-2.95,17.85,17.85,0,0,0-6.37-1.08,20.51,20.51,0,0,0-8.17,1.62,22.43,22.43,0,0,0-6.66,4.35,23.83,23.83,0,0,0-4.79,6.45A24.59,24.59,0,0,0,100.57,37a22.44,22.44,0,0,0,.11,7.06A17.19,17.19,0,0,0,103,50ZM105.33,53.06a15.62,15.62,0,0,0,5.07,3.13A18.44,18.44,0,0,0,117,57.3a20.29,20.29,0,0,0,8.14-1.62,23.23,23.23,0,0,0,6.66-4.35,22.8,22.8,0,0,0,4.78-6.45A24.77,24.77,0,0,0,139,37a21,21,0,0,0-.1-7.27,17.25,17.25,0,0,0-2.49-6.12Z"/><path class="cls-1" d="M155.73,51.83A9,9,0,0,0,159.94,56a13.35,13.35,0,0,0,5.87,1.33,12.57,12.57,0,0,0,3.56-.54,12.7,12.7,0,0,0,3.46-1.62,11.23,11.23,0,0,0,2.8-2.66,7.7,7.7,0,0,0,1.48-3.67,4.83,4.83,0,0,0-1.22-4.5,13.54,13.54,0,0,0-4.29-2.59q-2.62-1-5.76-2a21.62,21.62,0,0,1-5.69-2.7,11.8,11.8,0,0,1-4-4.64q-1.44-2.92-.72-7.89a14,14,0,0,1,1.62-4.75,16,16,0,0,1,3.74-4.61,20.71,20.71,0,0,1,13.93-4.89,31.77,31.77,0,0,1,4.07.25,17.41,17.41,0,0,1,3.75.9,12.45,12.45,0,0,1,3.27,1.8,13.25,13.25,0,0,1,2.74,2.88l-6.34,5.11a7.62,7.62,0,0,0-3.2-3.24,10.55,10.55,0,0,0-5.22-1.22,14.14,14.14,0,0,0-4.9.75,10,10,0,0,0-3.31,1.95,9,9,0,0,0-2,2.55,7.89,7.89,0,0,0-.83,2.52,5.8,5.8,0,0,0,1.19,5,11.9,11.9,0,0,0,4.25,2.81A49.11,49.11,0,0,0,174,34.19a23.26,23.26,0,0,1,5.72,2.41,11.18,11.18,0,0,1,4.07,4.18q1.47,2.63.83,7.24a18.07,18.07,0,0,1-2.38,6.62,17.89,17.89,0,0,1-4.46,5,20.11,20.11,0,0,1-6,3.09,23.1,23.1,0,0,1-7.06,1.08,23.56,23.56,0,0,1-9.07-1.69,12.27,12.27,0,0,1-6.19-5.36Z"/><path class="cls-1" d="M199.93,11.51h6.92l-7.13,51h-6.91Z"/><path class="cls-1" d="M253.36,34h6.91l-3.6,25.12a26.42,26.42,0,0,1-4.54,2A52.22,52.22,0,0,1,247,62.6a48.08,48.08,0,0,1-5.3.9,46.66,46.66,0,0,1-5,.28,27.2,27.2,0,0,1-11.27-2.16,20.51,20.51,0,0,1-7.74-5.83,21.56,21.56,0,0,1-4.14-8.53,26.6,26.6,0,0,1-.4-10.26,30.78,30.78,0,0,1,3.46-10.58,31.36,31.36,0,0,1,6.69-8.5,30.68,30.68,0,0,1,9.22-5.65A33.5,33.5,0,0,1,254.83,12a16.88,16.88,0,0,1,6.81,4.86L256,22.1a15.05,15.05,0,0,0-6.08-4.22,21.6,21.6,0,0,0-7.24-1.18,20.51,20.51,0,0,0-8.17,1.62,22.43,22.43,0,0,0-6.66,4.35A23.83,23.83,0,0,0,223,29.12,24.33,24.33,0,0,0,220.53,37a20,20,0,0,0,.43,8,16.86,16.86,0,0,0,3.27,6.44,15.82,15.82,0,0,0,5.66,4.29,18.12,18.12,0,0,0,7.63,1.54,34.69,34.69,0,0,0,7-.68,23.24,23.24,0,0,0,5.87-2l2-14.18h-11.3L242,34Z"/></svg>